<mxfile host="app.diagrams.net" agent="Mozilla/5.0 (X11; Linux x86_64; rv:143.0) Gecko/20100101 Firefox/143.0" version="28.2.7">
  <diagram name="Page-1" id="lmCwY0ycS1zCL9-CEgTq">
    <mxGraphModel dx="544" dy="306" grid="1" gridSize="10" guides="1" tooltips="1" connect="1" arrows="1" fold="1" page="1" pageScale="1" pageWidth="827" pageHeight="1169" math="0" shadow="0">
      <root>
        <mxCell id="0" />
        <mxCell id="1" parent="0" />
        <mxCell id="XRUMyThcFzFBNBvHtAJV-25" value="X" style="text;html=1;whiteSpace=wrap;strokeColor=none;fillColor=none;align=left;verticalAlign=middle;rounded=0;fontFamily=Helvetica;fontSize=11;fontColor=default;labelBackgroundColor=default;convertToSvg=1;" vertex="1" parent="1">
          <mxGeometry x="500" y="205" width="30" height="30" as="geometry" />
        </mxCell>
        <mxCell id="XRUMyThcFzFBNBvHtAJV-12" value="A" style="text;html=1;whiteSpace=wrap;strokeColor=none;fillColor=none;align=right;verticalAlign=middle;rounded=0;fontFamily=Helvetica;fontSize=11;fontColor=default;labelBackgroundColor=default;convertToSvg=1;" vertex="1" parent="1">
          <mxGeometry x="90" y="90" width="30" height="30" as="geometry" />
        </mxCell>
        <mxCell id="XRUMyThcFzFBNBvHtAJV-13" value="B" style="text;html=1;whiteSpace=wrap;strokeColor=none;fillColor=none;align=right;verticalAlign=middle;rounded=0;fontFamily=Helvetica;fontSize=11;fontColor=default;labelBackgroundColor=default;convertToSvg=1;" vertex="1" parent="1">
          <mxGeometry x="90" y="120" width="30" height="30" as="geometry" />
        </mxCell>
        <mxCell id="XRUMyThcFzFBNBvHtAJV-14" value="C" style="text;html=1;whiteSpace=wrap;strokeColor=none;fillColor=none;align=right;verticalAlign=middle;rounded=0;fontFamily=Helvetica;fontSize=11;fontColor=default;labelBackgroundColor=default;convertToSvg=1;" vertex="1" parent="1">
          <mxGeometry x="90" y="170" width="30" height="30" as="geometry" />
        </mxCell>
        <mxCell id="XRUMyThcFzFBNBvHtAJV-15" value="D" style="text;html=1;whiteSpace=wrap;strokeColor=none;fillColor=none;align=right;verticalAlign=middle;rounded=0;fontFamily=Helvetica;fontSize=11;fontColor=default;labelBackgroundColor=default;convertToSvg=1;" vertex="1" parent="1">
          <mxGeometry x="90" y="200" width="30" height="30" as="geometry" />
        </mxCell>
        <mxCell id="XRUMyThcFzFBNBvHtAJV-16" value="E" style="text;html=1;whiteSpace=wrap;strokeColor=none;fillColor=none;align=right;verticalAlign=middle;rounded=0;fontFamily=Helvetica;fontSize=11;fontColor=default;labelBackgroundColor=default;convertToSvg=1;" vertex="1" parent="1">
          <mxGeometry x="90" y="230" width="30" height="30" as="geometry" />
        </mxCell>
        <mxCell id="XRUMyThcFzFBNBvHtAJV-17" value="F" style="text;html=1;whiteSpace=wrap;strokeColor=none;fillColor=none;align=right;verticalAlign=middle;rounded=0;fontFamily=Helvetica;fontSize=11;fontColor=default;labelBackgroundColor=default;convertToSvg=1;" vertex="1" parent="1">
          <mxGeometry x="90" y="275" width="30" height="30" as="geometry" />
        </mxCell>
        <mxCell id="XRUMyThcFzFBNBvHtAJV-1" value="" style="verticalLabelPosition=bottom;shadow=0;dashed=0;align=center;html=1;verticalAlign=top;shape=mxgraph.electrical.logic_gates.logic_gate;operation=and;negating=1;negSize=0.15;" vertex="1" parent="1">
          <mxGeometry x="400" y="190" width="100" height="60" as="geometry" />
        </mxCell>
        <mxCell id="XRUMyThcFzFBNBvHtAJV-2" value="" style="verticalLabelPosition=bottom;shadow=0;dashed=0;align=center;html=1;verticalAlign=top;shape=mxgraph.electrical.logic_gates.logic_gate;operation=or;negating=1;negSize=0.15;" vertex="1" parent="1">
          <mxGeometry x="260" y="150" width="100" height="60" as="geometry" />
        </mxCell>
        <mxCell id="XRUMyThcFzFBNBvHtAJV-24" style="edgeStyle=orthogonalEdgeStyle;shape=connector;rounded=0;orthogonalLoop=1;jettySize=auto;html=1;exitX=0;exitY=0.25;exitDx=0;exitDy=0;exitPerimeter=0;entryX=1;entryY=0.5;entryDx=0;entryDy=0;strokeColor=default;align=center;verticalAlign=middle;fontFamily=Helvetica;fontSize=11;fontColor=default;labelBackgroundColor=default;endArrow=none;endFill=0;" edge="1" parent="1" source="XRUMyThcFzFBNBvHtAJV-3" target="XRUMyThcFzFBNBvHtAJV-16">
          <mxGeometry relative="1" as="geometry" />
        </mxCell>
        <mxCell id="XRUMyThcFzFBNBvHtAJV-3" value="" style="verticalLabelPosition=bottom;shadow=0;dashed=0;align=center;html=1;verticalAlign=top;shape=mxgraph.electrical.logic_gates.logic_gate;operation=or;negating=1;negSize=0.15;" vertex="1" parent="1">
          <mxGeometry x="260" y="230" width="100" height="60" as="geometry" />
        </mxCell>
        <mxCell id="XRUMyThcFzFBNBvHtAJV-19" style="edgeStyle=orthogonalEdgeStyle;shape=connector;rounded=0;orthogonalLoop=1;jettySize=auto;html=1;exitX=0;exitY=0.25;exitDx=0;exitDy=0;exitPerimeter=0;strokeColor=default;align=center;verticalAlign=middle;fontFamily=Helvetica;fontSize=11;fontColor=default;labelBackgroundColor=default;endArrow=none;endFill=0;" edge="1" parent="1" source="XRUMyThcFzFBNBvHtAJV-4" target="XRUMyThcFzFBNBvHtAJV-18">
          <mxGeometry relative="1" as="geometry" />
        </mxCell>
        <mxCell id="XRUMyThcFzFBNBvHtAJV-20" style="edgeStyle=orthogonalEdgeStyle;shape=connector;rounded=0;orthogonalLoop=1;jettySize=auto;html=1;exitX=0;exitY=0.75;exitDx=0;exitDy=0;exitPerimeter=0;strokeColor=default;align=center;verticalAlign=middle;fontFamily=Helvetica;fontSize=11;fontColor=default;labelBackgroundColor=default;endArrow=none;endFill=0;" edge="1" parent="1" source="XRUMyThcFzFBNBvHtAJV-4">
          <mxGeometry relative="1" as="geometry">
            <mxPoint x="130" y="290" as="targetPoint" />
          </mxGeometry>
        </mxCell>
        <mxCell id="XRUMyThcFzFBNBvHtAJV-4" value="" style="verticalLabelPosition=bottom;shadow=0;dashed=0;align=center;html=1;verticalAlign=top;shape=mxgraph.electrical.logic_gates.logic_gate;operation=and;negating=1;negSize=0.15;" vertex="1" parent="1">
          <mxGeometry x="140" y="260" width="100" height="60" as="geometry" />
        </mxCell>
        <mxCell id="XRUMyThcFzFBNBvHtAJV-5" value="" style="verticalLabelPosition=bottom;shadow=0;dashed=0;align=center;html=1;verticalAlign=top;shape=mxgraph.electrical.logic_gates.logic_gate;operation=or;negating=1;negSize=0.15;" vertex="1" parent="1">
          <mxGeometry x="120" y="170" width="100" height="60" as="geometry" />
        </mxCell>
        <mxCell id="XRUMyThcFzFBNBvHtAJV-6" value="" style="verticalLabelPosition=bottom;shadow=0;dashed=0;align=center;html=1;verticalAlign=top;shape=mxgraph.electrical.logic_gates.logic_gate;operation=and;negating=1;negSize=0.15;" vertex="1" parent="1">
          <mxGeometry x="120" y="90" width="100" height="60" as="geometry" />
        </mxCell>
        <mxCell id="XRUMyThcFzFBNBvHtAJV-7" style="edgeStyle=orthogonalEdgeStyle;rounded=0;orthogonalLoop=1;jettySize=auto;html=1;exitX=1;exitY=0.5;exitDx=0;exitDy=0;exitPerimeter=0;entryX=0;entryY=0.25;entryDx=0;entryDy=0;entryPerimeter=0;endArrow=none;endFill=0;" edge="1" parent="1" source="XRUMyThcFzFBNBvHtAJV-6" target="XRUMyThcFzFBNBvHtAJV-2">
          <mxGeometry relative="1" as="geometry" />
        </mxCell>
        <mxCell id="XRUMyThcFzFBNBvHtAJV-8" style="edgeStyle=orthogonalEdgeStyle;shape=connector;rounded=0;orthogonalLoop=1;jettySize=auto;html=1;exitX=1;exitY=0.5;exitDx=0;exitDy=0;exitPerimeter=0;entryX=0;entryY=0.75;entryDx=0;entryDy=0;entryPerimeter=0;strokeColor=default;align=center;verticalAlign=middle;fontFamily=Helvetica;fontSize=11;fontColor=default;labelBackgroundColor=default;endArrow=none;endFill=0;" edge="1" parent="1" source="XRUMyThcFzFBNBvHtAJV-5" target="XRUMyThcFzFBNBvHtAJV-2">
          <mxGeometry relative="1" as="geometry" />
        </mxCell>
        <mxCell id="XRUMyThcFzFBNBvHtAJV-9" style="edgeStyle=orthogonalEdgeStyle;shape=connector;rounded=0;orthogonalLoop=1;jettySize=auto;html=1;exitX=1;exitY=0.5;exitDx=0;exitDy=0;exitPerimeter=0;entryX=0;entryY=0.75;entryDx=0;entryDy=0;entryPerimeter=0;strokeColor=default;align=center;verticalAlign=middle;fontFamily=Helvetica;fontSize=11;fontColor=default;labelBackgroundColor=default;endArrow=none;endFill=0;" edge="1" parent="1" source="XRUMyThcFzFBNBvHtAJV-4" target="XRUMyThcFzFBNBvHtAJV-3">
          <mxGeometry relative="1" as="geometry" />
        </mxCell>
        <mxCell id="XRUMyThcFzFBNBvHtAJV-10" style="edgeStyle=orthogonalEdgeStyle;shape=connector;rounded=0;orthogonalLoop=1;jettySize=auto;html=1;exitX=1;exitY=0.5;exitDx=0;exitDy=0;exitPerimeter=0;entryX=0;entryY=0.25;entryDx=0;entryDy=0;entryPerimeter=0;strokeColor=default;align=center;verticalAlign=middle;fontFamily=Helvetica;fontSize=11;fontColor=default;labelBackgroundColor=default;endArrow=none;endFill=0;" edge="1" parent="1" source="XRUMyThcFzFBNBvHtAJV-2" target="XRUMyThcFzFBNBvHtAJV-1">
          <mxGeometry relative="1" as="geometry" />
        </mxCell>
        <mxCell id="XRUMyThcFzFBNBvHtAJV-11" style="edgeStyle=orthogonalEdgeStyle;shape=connector;rounded=0;orthogonalLoop=1;jettySize=auto;html=1;exitX=1;exitY=0.5;exitDx=0;exitDy=0;exitPerimeter=0;entryX=0;entryY=0.75;entryDx=0;entryDy=0;entryPerimeter=0;strokeColor=default;align=center;verticalAlign=middle;fontFamily=Helvetica;fontSize=11;fontColor=default;labelBackgroundColor=default;endArrow=none;endFill=0;" edge="1" parent="1" source="XRUMyThcFzFBNBvHtAJV-3" target="XRUMyThcFzFBNBvHtAJV-1">
          <mxGeometry relative="1" as="geometry" />
        </mxCell>
        <mxCell id="XRUMyThcFzFBNBvHtAJV-18" value="" style="shape=waypoint;sketch=0;fillStyle=solid;size=6;pointerEvents=1;points=[];fillColor=none;resizable=0;rotatable=0;perimeter=centerPerimeter;snapToPoint=1;fontFamily=Helvetica;fontSize=11;fontColor=default;labelBackgroundColor=default;" vertex="1" parent="1">
          <mxGeometry x="120" y="280" width="20" height="20" as="geometry" />
        </mxCell>
        <mxCell id="XRUMyThcFzFBNBvHtAJV-23" value="" style="endArrow=none;html=1;rounded=0;strokeColor=default;align=right;verticalAlign=middle;fontFamily=Helvetica;fontSize=11;fontColor=default;labelBackgroundColor=default;edgeStyle=orthogonalEdgeStyle;" edge="1" parent="1">
          <mxGeometry width="50" height="50" relative="1" as="geometry">
            <mxPoint x="120" y="290" as="sourcePoint" />
            <mxPoint x="130" y="290" as="targetPoint" />
          </mxGeometry>
        </mxCell>
        <mxCell id="XRUMyThcFzFBNBvHtAJV-26" value="" style="verticalLabelPosition=bottom;shadow=0;dashed=0;align=center;html=1;verticalAlign=top;shape=mxgraph.electrical.logic_gates.logic_gate;operation=or;negating=1;negSize=0.15;fontFamily=Helvetica;fontSize=11;fontColor=default;labelBackgroundColor=default;" vertex="1" parent="1">
          <mxGeometry x="165" y="275" width="50" height="30" as="geometry" />
        </mxCell>
        <mxCell id="XRUMyThcFzFBNBvHtAJV-27" value="ou" style="text;html=1;whiteSpace=wrap;strokeColor=none;fillColor=none;align=center;verticalAlign=middle;rounded=0;fontFamily=Helvetica;fontSize=10;fontColor=default;labelBackgroundColor=default;convertToSvg=1;" vertex="1" parent="1">
          <mxGeometry x="168" y="258" width="30" height="20" as="geometry" />
        </mxCell>
        <mxCell id="XRUMyThcFzFBNBvHtAJV-32" value="" style="group" vertex="1" connectable="0" parent="1">
          <mxGeometry x="425" y="205" width="50" height="30" as="geometry" />
        </mxCell>
        <mxCell id="XRUMyThcFzFBNBvHtAJV-28" value="" style="verticalLabelPosition=bottom;shadow=0;dashed=0;align=center;html=1;verticalAlign=top;shape=mxgraph.electrical.logic_gates.logic_gate;operation=or;fontFamily=Helvetica;fontSize=11;fontColor=default;labelBackgroundColor=default;" vertex="1" parent="XRUMyThcFzFBNBvHtAJV-32">
          <mxGeometry width="50" height="30" as="geometry" />
        </mxCell>
        <mxCell id="XRUMyThcFzFBNBvHtAJV-30" value="" style="verticalLabelPosition=bottom;shadow=0;dashed=0;align=center;html=1;verticalAlign=top;shape=mxgraph.electrical.logic_gates.inverting_contact;fontFamily=Helvetica;fontSize=11;fontColor=default;labelBackgroundColor=default;" vertex="1" parent="XRUMyThcFzFBNBvHtAJV-32">
          <mxGeometry x="6" y="5" width="5" height="5" as="geometry" />
        </mxCell>
        <mxCell id="XRUMyThcFzFBNBvHtAJV-31" value="" style="verticalLabelPosition=bottom;shadow=0;dashed=0;align=center;html=1;verticalAlign=top;shape=mxgraph.electrical.logic_gates.inverting_contact;fontFamily=Helvetica;fontSize=11;fontColor=default;labelBackgroundColor=default;" vertex="1" parent="XRUMyThcFzFBNBvHtAJV-32">
          <mxGeometry x="6" y="20" width="5" height="5" as="geometry" />
        </mxCell>
        <mxCell id="XRUMyThcFzFBNBvHtAJV-33" value="" style="group" vertex="1" connectable="0" parent="1">
          <mxGeometry x="144" y="105" width="50" height="30" as="geometry" />
        </mxCell>
        <mxCell id="XRUMyThcFzFBNBvHtAJV-34" value="" style="verticalLabelPosition=bottom;shadow=0;dashed=0;align=center;html=1;verticalAlign=top;shape=mxgraph.electrical.logic_gates.logic_gate;operation=or;fontFamily=Helvetica;fontSize=11;fontColor=default;labelBackgroundColor=default;" vertex="1" parent="XRUMyThcFzFBNBvHtAJV-33">
          <mxGeometry width="50" height="30" as="geometry" />
        </mxCell>
        <mxCell id="XRUMyThcFzFBNBvHtAJV-35" value="" style="verticalLabelPosition=bottom;shadow=0;dashed=0;align=center;html=1;verticalAlign=top;shape=mxgraph.electrical.logic_gates.inverting_contact;fontFamily=Helvetica;fontSize=11;fontColor=default;labelBackgroundColor=default;" vertex="1" parent="XRUMyThcFzFBNBvHtAJV-33">
          <mxGeometry x="6" y="5" width="5" height="5" as="geometry" />
        </mxCell>
        <mxCell id="XRUMyThcFzFBNBvHtAJV-36" value="" style="verticalLabelPosition=bottom;shadow=0;dashed=0;align=center;html=1;verticalAlign=top;shape=mxgraph.electrical.logic_gates.inverting_contact;fontFamily=Helvetica;fontSize=11;fontColor=default;labelBackgroundColor=default;" vertex="1" parent="XRUMyThcFzFBNBvHtAJV-33">
          <mxGeometry x="6" y="20" width="5" height="5" as="geometry" />
        </mxCell>
        <mxCell id="XRUMyThcFzFBNBvHtAJV-40" value="" style="group" vertex="1" connectable="0" parent="1">
          <mxGeometry x="145" y="185" width="50" height="30" as="geometry" />
        </mxCell>
        <mxCell id="XRUMyThcFzFBNBvHtAJV-37" value="" style="verticalLabelPosition=bottom;shadow=0;dashed=0;align=center;html=1;verticalAlign=top;shape=mxgraph.electrical.logic_gates.logic_gate;operation=and;fontFamily=Helvetica;fontSize=11;fontColor=default;labelBackgroundColor=default;" vertex="1" parent="XRUMyThcFzFBNBvHtAJV-40">
          <mxGeometry width="50" height="30" as="geometry" />
        </mxCell>
        <mxCell id="XRUMyThcFzFBNBvHtAJV-38" value="" style="verticalLabelPosition=bottom;shadow=0;dashed=0;align=center;html=1;verticalAlign=top;shape=mxgraph.electrical.logic_gates.inverting_contact;fontFamily=Helvetica;fontSize=11;fontColor=default;labelBackgroundColor=default;" vertex="1" parent="XRUMyThcFzFBNBvHtAJV-40">
          <mxGeometry x="5.5" y="5" width="5" height="5" as="geometry" />
        </mxCell>
        <mxCell id="XRUMyThcFzFBNBvHtAJV-39" value="" style="verticalLabelPosition=bottom;shadow=0;dashed=0;align=center;html=1;verticalAlign=top;shape=mxgraph.electrical.logic_gates.inverting_contact;fontFamily=Helvetica;fontSize=11;fontColor=default;labelBackgroundColor=default;" vertex="1" parent="XRUMyThcFzFBNBvHtAJV-40">
          <mxGeometry x="5.5" y="20" width="5" height="5" as="geometry" />
        </mxCell>
        <mxCell id="XRUMyThcFzFBNBvHtAJV-41" value="Equiv." style="text;html=1;whiteSpace=wrap;strokeColor=none;fillColor=none;align=center;verticalAlign=middle;rounded=0;fontFamily=Helvetica;fontSize=10;fontColor=default;labelBackgroundColor=default;convertToSvg=1;" vertex="1" parent="1">
          <mxGeometry x="138" y="87" width="40" height="20" as="geometry" />
        </mxCell>
        <mxCell id="XRUMyThcFzFBNBvHtAJV-42" value="Equiv." style="text;html=1;whiteSpace=wrap;strokeColor=none;fillColor=none;align=center;verticalAlign=middle;rounded=0;fontFamily=Helvetica;fontSize=10;fontColor=default;labelBackgroundColor=default;convertToSvg=1;" vertex="1" parent="1">
          <mxGeometry x="136" y="168" width="40" height="20" as="geometry" />
        </mxCell>
        <mxCell id="XRUMyThcFzFBNBvHtAJV-43" value="Equiv." style="text;html=1;whiteSpace=wrap;strokeColor=none;fillColor=none;align=center;verticalAlign=middle;rounded=0;fontFamily=Helvetica;fontSize=10;fontColor=default;labelBackgroundColor=default;convertToSvg=1;" vertex="1" parent="1">
          <mxGeometry x="420" y="187" width="40" height="20" as="geometry" />
        </mxCell>
      </root>
    </mxGraphModel>
  </diagram>
</mxfile>
